<svg xmlns="http://www.w3.org/2000/svg" xmlns:xlink="http://www.w3.org/1999/xlink" width="500" zoomAndPan="magnify" viewBox="0 0 375 374.999991" height="500" preserveAspectRatio="xMidYMid meet" version="1.2"><defs><clipPath id="393fe217e9"><path d="M 261 164 L 338 164 L 338 241.539062 L 261 241.539062 Z M 261 164 "/></clipPath><clipPath id="d3af362ff5"><path d="M 265 124.539062 L 272 124.539062 L 272 156 L 265 156 Z M 265 124.539062 "/></clipPath><clipPath id="efd0542680"><path d="M 221.09375 169 L 252 169 L 252 176 L 221.09375 176 Z M 221.09375 169 "/></clipPath></defs><g id="3981f82bbc"><g clip-rule="nonzero" clip-path="url(#393fe217e9)"><path style=" stroke:none;fill-rule:nonzero;fill:#131110;fill-opacity:1;" d="M 332.519531 192.316406 Z M 300.75 215.875 C 301.195312 215.429688 301.785156 215.136719 302.425781 215.0625 C 303.292969 214.960938 304.15625 215.261719 304.769531 215.875 L 321.363281 232.464844 C 323.472656 234.578125 326.910156 234.578125 329.019531 232.464844 C 331.132812 230.355469 331.132812 226.917969 329.019531 224.808594 L 312.429688 208.21875 C 311.816406 207.601562 311.515625 206.738281 311.617188 205.875 C 311.71875 205.007812 312.210938 204.238281 312.953125 203.78125 L 331.933594 192.117188 L 267.574219 170.363281 C 267.5 170.335938 267.269531 170.261719 267.042969 170.488281 C 266.8125 170.714844 266.890625 170.945312 266.917969 171.019531 L 288.671875 235.378906 L 300.335938 216.398438 C 300.453125 216.207031 300.59375 216.03125 300.75 215.875 Z M 333.042969 236.488281 C 328.714844 240.820312 321.667969 240.820312 317.339844 236.488281 L 303.296875 222.449219 L 293.34375 238.644531 C 292.320312 240.472656 290.390625 241.535156 288.285156 241.425781 C 286.183594 241.3125 284.390625 240.046875 283.601562 238.117188 C 283.558594 238.003906 283.515625 237.894531 283.480469 237.785156 L 261.527344 172.84375 C 260.765625 170.589844 261.335938 168.144531 263.019531 166.464844 C 264.699219 164.78125 267.144531 164.210938 269.398438 164.972656 L 334.335938 186.925781 C 334.453125 186.964844 334.5625 187.003906 334.671875 187.050781 C 336.601562 187.839844 337.867188 189.632812 337.976562 191.730469 C 338.089844 193.835938 337.027344 195.769531 335.199219 196.789062 L 319 206.742188 L 333.042969 220.785156 C 337.375 225.113281 337.375 232.160156 333.042969 236.488281 "/></g><path style=" stroke:none;fill-rule:nonzero;fill:#131110;fill-opacity:1;" d="M 234.628906 138.074219 L 255.875 159.320312 "/><path style=" stroke:none;fill-rule:nonzero;fill:#131110;fill-opacity:1;" d="M 257.886719 161.332031 C 256.777344 162.445312 254.976562 162.445312 253.863281 161.332031 L 232.617188 140.085938 C 231.503906 138.976562 231.503906 137.175781 232.617188 136.0625 C 233.726562 134.953125 235.527344 134.953125 236.640625 136.0625 L 257.886719 157.308594 C 259 158.421875 259 160.222656 257.886719 161.332031 "/><g clip-rule="nonzero" clip-path="url(#d3af362ff5)"><path style=" stroke:none;fill-rule:nonzero;fill:#131110;fill-opacity:1;" d="M 270.820312 154.40625 C 270.304688 154.921875 269.59375 155.238281 268.808594 155.238281 C 267.238281 155.238281 265.964844 153.964844 265.964844 152.394531 L 265.964844 127.382812 C 265.964844 125.8125 267.238281 124.539062 268.808594 124.539062 C 270.378906 124.539062 271.652344 125.8125 271.652344 127.382812 L 271.652344 152.394531 C 271.652344 153.179688 271.335938 153.890625 270.820312 154.40625 "/></g><path style=" stroke:none;fill-rule:nonzero;fill:#131110;fill-opacity:1;" d="M 297.625 143.4375 L 283.082031 157.980469 "/><path style=" stroke:none;fill-rule:nonzero;fill:#131110;fill-opacity:1;" d="M 299.636719 145.449219 L 285.09375 159.992188 C 283.984375 161.101562 282.183594 161.101562 281.070312 159.992188 C 279.960938 158.882812 279.960938 157.082031 281.070312 155.96875 L 295.613281 141.425781 C 296.726562 140.316406 298.527344 140.316406 299.636719 141.425781 C 300.746094 142.539062 300.746094 144.339844 299.636719 145.449219 "/><path style=" stroke:none;fill-rule:nonzero;fill:#131110;fill-opacity:1;" d="M 239.992188 201.070312 L 254.535156 186.53125 "/><path style=" stroke:none;fill-rule:nonzero;fill:#131110;fill-opacity:1;" d="M 256.546875 188.539062 L 242.003906 203.082031 C 240.894531 204.195312 239.089844 204.195312 237.980469 203.082031 C 236.871094 201.972656 236.871094 200.171875 237.980469 199.058594 L 252.523438 184.519531 C 253.632812 183.40625 255.433594 183.40625 256.546875 184.519531 C 257.65625 185.628906 257.65625 187.429688 256.546875 188.539062 "/><g clip-rule="nonzero" clip-path="url(#efd0542680)"><path style=" stroke:none;fill-rule:nonzero;fill:#131110;fill-opacity:1;" d="M 250.957031 174.265625 C 250.445312 174.78125 249.734375 175.101562 248.949219 175.101562 L 223.9375 175.101562 C 222.367188 175.101562 221.09375 173.828125 221.09375 172.253906 C 221.09375 170.683594 222.367188 169.410156 223.9375 169.410156 L 248.949219 169.410156 C 250.519531 169.410156 251.792969 170.683594 251.792969 172.253906 C 251.792969 173.039062 251.472656 173.753906 250.957031 174.265625 "/></g><g style="fill:#000000;fill-opacity:1;"><g transform="translate(29.088233, 171.735279)"><path style="stroke:none" d="M 64.375 -74.5 L 64.375 -69.53125 L 25.015625 0 L 4.96875 0 L 39.28125 -59.59375 L 7.21875 -59.59375 L 7.21875 -74.5 Z M 64.375 -74.5 "/></g></g><g style="fill:#000000;fill-opacity:1;"><g transform="translate(86.967016, 171.735279)"><path style="stroke:none" d="M 6.953125 -72.140625 C 8.816406 -74.015625 11.039062 -74.953125 13.625 -74.953125 C 16.21875 -74.953125 18.445312 -74.015625 20.3125 -72.140625 C 22.175781 -70.273438 23.109375 -68.046875 23.109375 -65.453125 C 23.109375 -62.867188 22.175781 -60.644531 20.3125 -58.78125 C 18.445312 -56.914062 16.21875 -55.984375 13.625 -55.984375 C 11.039062 -55.984375 8.816406 -56.914062 6.953125 -58.78125 C 5.085938 -60.644531 4.15625 -62.867188 4.15625 -65.453125 C 4.15625 -68.046875 5.085938 -70.273438 6.953125 -72.140625 Z M 5.421875 -46.328125 L 5.421875 4.0625 C 5.421875 8.28125 3.945312 10.390625 1 10.390625 C 0.394531 10.390625 -0.234375 10.28125 -0.890625 10.0625 C -1.554688 9.851562 -2.101562 9.628906 -2.53125 9.390625 L -3.0625 9.03125 L -8.03125 21.9375 C -7.914062 22 -7.523438 22.179688 -6.859375 22.484375 C -6.203125 22.785156 -5.707031 23.007812 -5.375 23.15625 C -5.039062 23.3125 -4.484375 23.507812 -3.703125 23.75 C -2.921875 23.988281 -2.164062 24.164062 -1.4375 24.28125 C -0.71875 24.40625 0.179688 24.523438 1.265625 24.640625 C 2.347656 24.765625 3.492188 24.828125 4.703125 24.828125 C 7.703125 24.828125 10.347656 24.300781 12.640625 23.25 C 14.929688 22.195312 16.675781 20.78125 17.875 19 C 19.082031 17.226562 19.972656 15.363281 20.546875 13.40625 C 21.117188 11.445312 21.40625 9.359375 21.40625 7.140625 L 21.40625 -46.328125 Z M 5.421875 -46.328125 "/></g></g><g style="fill:#000000;fill-opacity:1;"><g transform="translate(109.54037, 171.735279)"><path style="stroke:none" d="M 52.28125 -20.953125 L 18.6875 -20.953125 C 18.6875 -17.703125 19.738281 -15.289062 21.84375 -13.71875 C 23.957031 -12.15625 26.25 -11.375 28.71875 -11.375 C 31.300781 -11.375 33.34375 -11.71875 34.84375 -12.40625 C 36.351562 -13.101562 38.070312 -14.476562 40 -16.53125 L 51.5625 -10.75 C 46.738281 -2.675781 38.734375 1.359375 27.546875 1.359375 C 20.554688 1.359375 14.5625 -1.03125 9.5625 -5.8125 C 4.570312 -10.601562 2.078125 -16.367188 2.078125 -23.109375 C 2.078125 -29.859375 4.570312 -35.640625 9.5625 -40.453125 C 14.5625 -45.265625 20.554688 -47.671875 27.546875 -47.671875 C 34.890625 -47.671875 40.863281 -45.546875 45.46875 -41.296875 C 50.070312 -37.054688 52.375 -30.992188 52.375 -23.109375 C 52.375 -22.023438 52.34375 -21.304688 52.28125 -20.953125 Z M 19.140625 -29.796875 L 36.75 -29.796875 C 36.382812 -32.203125 35.4375 -34.050781 33.90625 -35.34375 C 32.375 -36.644531 30.398438 -37.296875 27.984375 -37.296875 C 25.335938 -37.296875 23.234375 -36.601562 21.671875 -35.21875 C 20.109375 -33.832031 19.265625 -32.023438 19.140625 -29.796875 Z M 19.140625 -29.796875 "/></g></g><g style="fill:#000000;fill-opacity:1;"><g transform="translate(159.744061, 171.735279)"><path style="stroke:none" d="M 50.203125 -46.328125 L 27.265625 -12.1875 L 48.40625 -12.1875 L 48.40625 0 L 0.453125 0 L 23.390625 -34.125 L 4.25 -34.125 L 4.25 -46.328125 Z M 50.203125 -46.328125 "/></g></g><g style="fill:#000000;fill-opacity:1;"><g transform="translate(17.649089, 251.25078)"><path style="stroke:none" d="M 5.421875 -74.5 L 27 -74.5 C 37.351562 -74.5 46.203125 -70.960938 53.546875 -63.890625 C 60.890625 -56.816406 64.5625 -47.953125 64.5625 -37.296875 C 64.5625 -26.578125 60.90625 -17.679688 53.59375 -10.609375 C 46.28125 -3.535156 37.414062 0 27 0 L 5.421875 0 Z M 22.390625 -15.171875 L 25.015625 -15.171875 C 31.210938 -15.171875 36.28125 -17.257812 40.21875 -21.4375 C 44.164062 -25.625 46.171875 -30.878906 46.234375 -37.203125 C 46.234375 -43.523438 44.257812 -48.789062 40.3125 -53 C 36.375 -57.21875 31.273438 -59.328125 25.015625 -59.328125 L 22.390625 -59.328125 Z M 22.390625 -15.171875 "/></g></g><g style="fill:#000000;fill-opacity:1;"><g transform="translate(79.139592, 251.25078)"><path style="stroke:none" d="M 8.578125 -5.734375 C 4.242188 -10.460938 2.078125 -16.253906 2.078125 -23.109375 C 2.078125 -29.972656 4.242188 -35.78125 8.578125 -40.53125 C 12.910156 -45.289062 18.421875 -47.671875 25.109375 -47.671875 C 31.242188 -47.671875 36.296875 -45.742188 40.265625 -41.890625 L 40.265625 -46.328125 L 56.25 -46.328125 L 56.25 0 L 40.453125 0 L 40.453125 -5.234375 L 40.265625 -5.234375 C 36.296875 -0.835938 31.242188 1.359375 25.109375 1.359375 C 18.421875 1.359375 12.910156 -1.003906 8.578125 -5.734375 Z M 22.15625 -30.96875 C 20.082031 -28.925781 19.046875 -26.304688 19.046875 -23.109375 C 19.046875 -19.921875 20.039062 -17.316406 22.03125 -15.296875 C 24.019531 -13.285156 26.640625 -12.28125 29.890625 -12.28125 C 33.015625 -12.28125 35.585938 -13.300781 37.609375 -15.34375 C 39.628906 -17.394531 40.640625 -19.984375 40.640625 -23.109375 C 40.640625 -26.304688 39.597656 -28.925781 37.515625 -30.96875 C 35.441406 -33.019531 32.898438 -34.046875 29.890625 -34.046875 C 26.816406 -34.046875 24.238281 -33.019531 22.15625 -30.96875 Z M 22.15625 -30.96875 "/></g></g><g style="fill:#000000;fill-opacity:1;"><g transform="translate(135.663863, 251.25078)"><path style="stroke:none" d="M 53.09375 -40.53125 C 57.425781 -35.78125 59.59375 -29.972656 59.59375 -23.109375 C 59.59375 -16.253906 57.425781 -10.460938 53.09375 -5.734375 C 48.757812 -1.003906 43.25 1.359375 36.5625 1.359375 C 30.425781 1.359375 25.375 -0.835938 21.40625 -5.234375 L 21.21875 -5.234375 L 21.21875 0 L 5.421875 0 L 5.421875 -77.65625 L 21.40625 -77.65625 L 21.40625 -41.890625 C 25.375 -45.742188 30.425781 -47.671875 36.5625 -47.671875 C 43.25 -47.671875 48.757812 -45.289062 53.09375 -40.53125 Z M 39.640625 -15.296875 C 41.628906 -17.316406 42.625 -19.921875 42.625 -23.109375 C 42.625 -26.304688 41.582031 -28.925781 39.5 -30.96875 C 37.425781 -33.019531 34.851562 -34.046875 31.78125 -34.046875 C 28.769531 -34.046875 26.226562 -33.019531 24.15625 -30.96875 C 22.082031 -28.925781 21.046875 -26.304688 21.046875 -23.109375 C 21.046875 -19.984375 22.050781 -17.394531 24.0625 -15.34375 C 26.082031 -13.300781 28.65625 -12.28125 31.78125 -12.28125 C 35.03125 -12.28125 37.648438 -13.285156 39.640625 -15.296875 Z M 39.640625 -15.296875 "/></g></g><g style="fill:#000000;fill-opacity:1;"><g transform="translate(192.188133, 251.25078)"><path style="stroke:none" d="M 8.578125 -5.734375 C 4.242188 -10.460938 2.078125 -16.253906 2.078125 -23.109375 C 2.078125 -29.972656 4.242188 -35.78125 8.578125 -40.53125 C 12.910156 -45.289062 18.421875 -47.671875 25.109375 -47.671875 C 31.242188 -47.671875 36.296875 -45.742188 40.265625 -41.890625 L 40.265625 -46.328125 L 56.25 -46.328125 L 56.25 0 L 40.453125 0 L 40.453125 -5.234375 L 40.265625 -5.234375 C 36.296875 -0.835938 31.242188 1.359375 25.109375 1.359375 C 18.421875 1.359375 12.910156 -1.003906 8.578125 -5.734375 Z M 22.15625 -30.96875 C 20.082031 -28.925781 19.046875 -26.304688 19.046875 -23.109375 C 19.046875 -19.921875 20.039062 -17.316406 22.03125 -15.296875 C 24.019531 -13.285156 26.640625 -12.28125 29.890625 -12.28125 C 33.015625 -12.28125 35.585938 -13.300781 37.609375 -15.34375 C 39.628906 -17.394531 40.640625 -19.984375 40.640625 -23.109375 C 40.640625 -26.304688 39.597656 -28.925781 37.515625 -30.96875 C 35.441406 -33.019531 32.898438 -34.046875 29.890625 -34.046875 C 26.816406 -34.046875 24.238281 -33.019531 22.15625 -30.96875 Z M 22.15625 -30.96875 "/></g></g><g style="fill:#000000;fill-opacity:1;"><g transform="translate(117.987287, 118.010494)"><path style="stroke:none" d="M 17.109375 0 L 14.828125 0 C 14.203125 0 13.679688 -0.414062 13.265625 -1.25 L 10.8125 -6.234375 C 10.601562 -6.671875 10.378906 -6.992188 10.140625 -7.203125 C 9.910156 -7.410156 9.585938 -7.523438 9.171875 -7.546875 L 5.84375 -7.546875 L 5.84375 -1.953125 L 8.203125 -1.953125 C 8.410156 -1.953125 8.515625 -1.847656 8.515625 -1.640625 L 8.515625 -0.3125 C 8.515625 -0.101562 8.410156 0 8.203125 0 L 1.59375 0 C 1.363281 0 1.25 -0.101562 1.25 -0.3125 L 1.25 -1.640625 C 1.25 -1.847656 1.363281 -1.953125 1.59375 -1.953125 L 3.578125 -1.953125 L 3.578125 -16.78125 L 1.59375 -16.78125 C 1.363281 -16.78125 1.25 -16.890625 1.25 -17.109375 L 1.25 -18.4375 C 1.25 -18.644531 1.363281 -18.75 1.59375 -18.75 L 9.640625 -18.75 C 11.492188 -18.75 13.003906 -18.253906 14.171875 -17.265625 C 15.335938 -16.285156 15.921875 -14.898438 15.921875 -13.109375 C 15.921875 -10.367188 14.644531 -8.660156 12.09375 -7.984375 C 12.414062 -7.722656 12.820312 -7.140625 13.3125 -6.234375 L 15.515625 -1.953125 L 17.109375 -1.953125 C 17.316406 -1.953125 17.421875 -1.847656 17.421875 -1.640625 L 17.421875 -0.3125 C 17.421875 -0.101562 17.316406 0 17.109375 0 Z M 5.84375 -9.40625 L 9.1875 -9.40625 C 12.144531 -9.40625 13.625 -10.613281 13.625 -13.03125 C 13.625 -15.53125 12.144531 -16.78125 9.1875 -16.78125 L 5.84375 -16.78125 Z M 5.84375 -9.40625 "/></g></g><g style="fill:#000000;fill-opacity:1;"><g transform="translate(137.644402, 118.010494)"><path style="stroke:none" d="M 15.453125 0 L 1.59375 0 C 1.363281 0 1.25 -0.101562 1.25 -0.3125 L 1.25 -1.640625 C 1.25 -1.847656 1.363281 -1.953125 1.59375 -1.953125 L 3.578125 -1.953125 L 3.578125 -16.78125 L 1.59375 -16.78125 C 1.363281 -16.78125 1.25 -16.890625 1.25 -17.109375 L 1.25 -18.4375 C 1.25 -18.644531 1.363281 -18.75 1.59375 -18.75 L 15.453125 -18.75 C 15.679688 -18.75 15.796875 -18.644531 15.796875 -18.4375 L 15.796875 -14.234375 C 15.796875 -14.003906 15.679688 -13.890625 15.453125 -13.890625 L 14.046875 -13.890625 C 13.835938 -13.890625 13.734375 -14.003906 13.734375 -14.234375 L 13.734375 -16.78125 L 5.84375 -16.78125 L 5.84375 -10.3125 L 12.453125 -10.3125 C 12.679688 -10.3125 12.796875 -10.207031 12.796875 -10 L 12.796875 -8.671875 C 12.796875 -8.460938 12.679688 -8.359375 12.453125 -8.359375 L 5.84375 -8.359375 L 5.84375 -1.953125 L 13.703125 -1.953125 L 13.703125 -4.515625 C 13.703125 -4.722656 13.816406 -4.828125 14.046875 -4.828125 L 15.453125 -4.828125 C 15.679688 -4.828125 15.796875 -4.722656 15.796875 -4.515625 L 15.796875 -0.3125 C 15.796875 -0.101562 15.679688 0 15.453125 0 Z M 15.453125 0 "/></g></g><g style="fill:#000000;fill-opacity:1;"><g transform="translate(155.683035, 118.010494)"><path style="stroke:none" d="M 3.0625 0 L 1.59375 0 C 1.363281 0 1.25 -0.101562 1.25 -0.3125 L 1.25 -6.421875 C 1.25 -6.648438 1.363281 -6.765625 1.59375 -6.765625 L 3.234375 -6.765625 C 3.441406 -6.765625 3.546875 -6.648438 3.546875 -6.421875 L 3.546875 -5.875 C 3.546875 -5.539062 3.742188 -5.097656 4.140625 -4.546875 C 4.546875 -4.003906 4.945312 -3.554688 5.34375 -3.203125 C 5.75 -2.859375 6.285156 -2.5625 6.953125 -2.3125 C 7.628906 -2.0625 8.359375 -1.9375 9.140625 -1.9375 C 10.484375 -1.9375 11.53125 -2.210938 12.28125 -2.765625 C 13.039062 -3.328125 13.421875 -4.101562 13.421875 -5.09375 C 13.421875 -5.664062 13.207031 -6.15625 12.78125 -6.5625 C 12.351562 -6.976562 11.800781 -7.304688 11.125 -7.546875 C 10.445312 -7.785156 9.691406 -8.007812 8.859375 -8.21875 C 8.035156 -8.425781 7.207031 -8.664062 6.375 -8.9375 C 5.550781 -9.207031 4.800781 -9.53125 4.125 -9.90625 C 3.445312 -10.28125 2.894531 -10.800781 2.46875 -11.46875 C 2.039062 -12.144531 1.828125 -12.9375 1.828125 -13.84375 C 1.828125 -15.300781 2.378906 -16.507812 3.484375 -17.46875 C 4.585938 -18.425781 6.070312 -18.90625 7.9375 -18.90625 C 10.289062 -18.90625 12.015625 -18.21875 13.109375 -16.84375 L 13.0625 -18.453125 C 13.0625 -18.660156 13.171875 -18.765625 13.390625 -18.765625 L 14.859375 -18.765625 C 15.066406 -18.765625 15.171875 -18.660156 15.171875 -18.453125 L 15.171875 -12.765625 C 15.171875 -12.554688 15.066406 -12.453125 14.859375 -12.453125 L 13.21875 -12.453125 C 13 -12.453125 12.890625 -12.554688 12.890625 -12.765625 L 12.890625 -13.5 C 12.890625 -14.207031 12.488281 -14.925781 11.6875 -15.65625 C 10.894531 -16.394531 9.722656 -16.765625 8.171875 -16.765625 C 7.023438 -16.765625 6.097656 -16.488281 5.390625 -15.9375 C 4.679688 -15.394531 4.328125 -14.695312 4.328125 -13.84375 C 4.328125 -13.226562 4.546875 -12.703125 4.984375 -12.265625 C 5.421875 -11.835938 5.988281 -11.488281 6.6875 -11.21875 C 7.382812 -10.957031 8.148438 -10.71875 8.984375 -10.5 C 9.816406 -10.289062 10.648438 -10.054688 11.484375 -9.796875 C 12.316406 -9.535156 13.082031 -9.21875 13.78125 -8.84375 C 14.476562 -8.476562 15.046875 -7.976562 15.484375 -7.34375 C 15.921875 -6.707031 16.140625 -5.957031 16.140625 -5.09375 C 16.140625 -3.5625 15.585938 -2.296875 14.484375 -1.296875 C 13.390625 -0.304688 11.753906 0.1875 9.578125 0.1875 C 7.984375 0.1875 6.660156 -0.132812 5.609375 -0.78125 C 4.566406 -1.425781 3.8125 -2.125 3.34375 -2.875 L 3.375 -0.3125 C 3.375 -0.101562 3.269531 0 3.0625 0 Z M 3.0625 0 "/></g></g><g style="fill:#000000;fill-opacity:1;"><g transform="translate(174.061026, 118.010494)"><path style="stroke:none" d="M 15.453125 0 L 1.59375 0 C 1.363281 0 1.25 -0.101562 1.25 -0.3125 L 1.25 -1.640625 C 1.25 -1.847656 1.363281 -1.953125 1.59375 -1.953125 L 3.578125 -1.953125 L 3.578125 -16.78125 L 1.59375 -16.78125 C 1.363281 -16.78125 1.25 -16.890625 1.25 -17.109375 L 1.25 -18.4375 C 1.25 -18.644531 1.363281 -18.75 1.59375 -18.75 L 15.453125 -18.75 C 15.679688 -18.75 15.796875 -18.644531 15.796875 -18.4375 L 15.796875 -14.234375 C 15.796875 -14.003906 15.679688 -13.890625 15.453125 -13.890625 L 14.046875 -13.890625 C 13.835938 -13.890625 13.734375 -14.003906 13.734375 -14.234375 L 13.734375 -16.78125 L 5.84375 -16.78125 L 5.84375 -10.3125 L 12.453125 -10.3125 C 12.679688 -10.3125 12.796875 -10.207031 12.796875 -10 L 12.796875 -8.671875 C 12.796875 -8.460938 12.679688 -8.359375 12.453125 -8.359375 L 5.84375 -8.359375 L 5.84375 -1.953125 L 13.703125 -1.953125 L 13.703125 -4.515625 C 13.703125 -4.722656 13.816406 -4.828125 14.046875 -4.828125 L 15.453125 -4.828125 C 15.679688 -4.828125 15.796875 -4.722656 15.796875 -4.515625 L 15.796875 -0.3125 C 15.796875 -0.101562 15.679688 0 15.453125 0 Z M 15.453125 0 "/></g></g><g style="fill:#000000;fill-opacity:1;"><g transform="translate(192.099659, 118.010494)"><path style="stroke:none" d="M 17.109375 0 L 14.828125 0 C 14.203125 0 13.679688 -0.414062 13.265625 -1.25 L 10.8125 -6.234375 C 10.601562 -6.671875 10.378906 -6.992188 10.140625 -7.203125 C 9.910156 -7.410156 9.585938 -7.523438 9.171875 -7.546875 L 5.84375 -7.546875 L 5.84375 -1.953125 L 8.203125 -1.953125 C 8.410156 -1.953125 8.515625 -1.847656 8.515625 -1.640625 L 8.515625 -0.3125 C 8.515625 -0.101562 8.410156 0 8.203125 0 L 1.59375 0 C 1.363281 0 1.25 -0.101562 1.25 -0.3125 L 1.25 -1.640625 C 1.25 -1.847656 1.363281 -1.953125 1.59375 -1.953125 L 3.578125 -1.953125 L 3.578125 -16.78125 L 1.59375 -16.78125 C 1.363281 -16.78125 1.25 -16.890625 1.25 -17.109375 L 1.25 -18.4375 C 1.25 -18.644531 1.363281 -18.75 1.59375 -18.75 L 9.640625 -18.75 C 11.492188 -18.75 13.003906 -18.253906 14.171875 -17.265625 C 15.335938 -16.285156 15.921875 -14.898438 15.921875 -13.109375 C 15.921875 -10.367188 14.644531 -8.660156 12.09375 -7.984375 C 12.414062 -7.722656 12.820312 -7.140625 13.3125 -6.234375 L 15.515625 -1.953125 L 17.109375 -1.953125 C 17.316406 -1.953125 17.421875 -1.847656 17.421875 -1.640625 L 17.421875 -0.3125 C 17.421875 -0.101562 17.316406 0 17.109375 0 Z M 5.84375 -9.40625 L 9.1875 -9.40625 C 12.144531 -9.40625 13.625 -10.613281 13.625 -13.03125 C 13.625 -15.53125 12.144531 -16.78125 9.1875 -16.78125 L 5.84375 -16.78125 Z M 5.84375 -9.40625 "/></g></g><g style="fill:#000000;fill-opacity:1;"><g transform="translate(211.756774, 118.010494)"><path style="stroke:none" d="M 11.59375 0 L 10.578125 0 C 10.242188 0 9.988281 -0.078125 9.8125 -0.234375 C 9.644531 -0.390625 9.488281 -0.660156 9.34375 -1.046875 L 3.265625 -16.78125 L 1.59375 -16.78125 C 1.363281 -16.78125 1.25 -16.890625 1.25 -17.109375 L 1.25 -18.4375 C 1.25 -18.644531 1.363281 -18.75 1.59375 -18.75 L 7.46875 -18.75 C 7.675781 -18.75 7.78125 -18.644531 7.78125 -18.4375 L 7.78125 -17.109375 C 7.78125 -16.890625 7.675781 -16.78125 7.46875 -16.78125 L 5.6875 -16.78125 L 10.984375 -2.765625 L 11.15625 -2.765625 L 16.453125 -16.78125 L 14.671875 -16.78125 C 14.441406 -16.78125 14.328125 -16.890625 14.328125 -17.109375 L 14.328125 -18.4375 C 14.328125 -18.644531 14.441406 -18.75 14.671875 -18.75 L 20.546875 -18.75 C 20.773438 -18.75 20.890625 -18.644531 20.890625 -18.4375 L 20.890625 -17.109375 C 20.890625 -16.890625 20.773438 -16.78125 20.546875 -16.78125 L 18.828125 -16.78125 L 12.796875 -1.046875 C 12.671875 -0.679688 12.523438 -0.414062 12.359375 -0.25 C 12.191406 -0.0820312 11.9375 0 11.59375 0 Z M 11.59375 0 "/></g></g><g style="fill:#000000;fill-opacity:1;"><g transform="translate(234.885801, 118.010494)"><path style="stroke:none" d="M 15.453125 0 L 1.59375 0 C 1.363281 0 1.25 -0.101562 1.25 -0.3125 L 1.25 -1.640625 C 1.25 -1.847656 1.363281 -1.953125 1.59375 -1.953125 L 3.578125 -1.953125 L 3.578125 -16.78125 L 1.59375 -16.78125 C 1.363281 -16.78125 1.25 -16.890625 1.25 -17.109375 L 1.25 -18.4375 C 1.25 -18.644531 1.363281 -18.75 1.59375 -18.75 L 15.453125 -18.75 C 15.679688 -18.75 15.796875 -18.644531 15.796875 -18.4375 L 15.796875 -14.234375 C 15.796875 -14.003906 15.679688 -13.890625 15.453125 -13.890625 L 14.046875 -13.890625 C 13.835938 -13.890625 13.734375 -14.003906 13.734375 -14.234375 L 13.734375 -16.78125 L 5.84375 -16.78125 L 5.84375 -10.3125 L 12.453125 -10.3125 C 12.679688 -10.3125 12.796875 -10.207031 12.796875 -10 L 12.796875 -8.671875 C 12.796875 -8.460938 12.679688 -8.359375 12.453125 -8.359375 L 5.84375 -8.359375 L 5.84375 -1.953125 L 13.703125 -1.953125 L 13.703125 -4.515625 C 13.703125 -4.722656 13.816406 -4.828125 14.046875 -4.828125 L 15.453125 -4.828125 C 15.679688 -4.828125 15.796875 -4.722656 15.796875 -4.515625 L 15.796875 -0.3125 C 15.796875 -0.101562 15.679688 0 15.453125 0 Z M 15.453125 0 "/></g></g></g></svg>